:SAMPLES-PER-SECOND 30
:FULLY-SPECIFIED
:DEGREES
1200
root  25.3656 38.8753 20.9951 177.26 -23.281 174.92
RightUpLeg  4.30933 10.8376 -11.5663
RightLeg  33.5467 -1.92798 -1.71984
RightFoot  -13.9089 0.125227 8.85118
RightToes  0.000482159 0.542163 -0.142577
Spine  10.6238 -2.15901 -5.04991
Spine1  6.87055 -4.18993 6.18285
HEad  9.14171 3.33317 2.42411
LeftShoulder1  8.93821 -13.292 -46.4234
LeftArm  -8.35137 28.375 -25.9195
LeftForeArm  35.0292 -7.68028 -5.20091
LeftHand  -0.25398 0.0180481 5.50724
RightShoulder  4.53849 7.77492 34.2876
RightArm  3.15604 -26.6116 36.3927
RightForeArm  -14.1285 26.2452 6.33971
RightHand  -2.3787 5.82478 -24.6445
LeftUpLeg  -12.7873 18.7136 5.19846
LeftLeg  18.681 -2.748 -0.649061
LeftFoot  1.3631 0.762412 -6.88185
LeftToes  1.06246e-005 4.65854e-005 -8.18503e-006
1201
root  24.0717 39.0507 20.5295 177.5 -20.2626 173.61
RightUpLeg  -1.75039 10.5807 -13.5873
RightLeg  43.724 -6.00362 -6.40305
RightFoot  -4.20603 -0.319029 5.33967
RightToes  0.000482159 0.542163 -0.142577
Spine  11.5025 -1.93543 -6.98239
Spine1  6.92559 -4.22388 6.06313
HEad  9.49328 3.34959 2.12056
LeftShoulder1  9.0104 -13.4299 -46.4176
LeftArm  -8.06678 25.9846 -25.6505
LeftForeArm  35.5776 -7.97266 -5.38851
LeftHand  -0.25398 0.0180481 5.50724
RightShoulder  4.58121 7.87751 34.3001
RightArm  3.76304 -26.8421 37.4647
RightForeArm  -15.7993 24.5949 6.03022
RightHand  -2.2843 5.29192 -24.8275
LeftUpLeg  -10.5999 21.5925 3.26272
LeftLeg  19.5127 -1.95858 -0.459593
LeftFoot  -1.90515 0.444236 -5.26316
LeftToes  1.06246e-005 4.65854e-005 -8.18503e-006
1202
root  22.8147 39.2024 20.0399 177.668 -17.3876 172.806
RightUpLeg  -8.16674 8.35423 -14.6367
RightLeg  51.6348 -6.76567 -9.3396
RightFoot  3.58161 -0.00782433 0.0220038
RightToes  0.000482159 0.542163 -0.142577
Spine  11.973 -1.99974 -8.17881
Spine1  6.929 -4.49412 5.97626
HEad  9.82171 3.844 1.46143
LeftShoulder1  9.08746 -13.5625 -46.4519
LeftArm  -8.08329 23.5702 -24.8512
LeftForeArm  35.6849 -9.05369 -5.40609
LeftHand  -0.25398 0.0180481 5.50724
RightShoulder  4.56328 7.89002 34.1006
RightArm  5.01475 -27.5763 38.5561
RightForeArm  -15.817 24.3935 5.98571
RightHand  -1.89518 3.94148 -23.5456
LeftUpLeg  -8.27266 22.9812 1.75601
LeftLeg  19.3034 -0.261712 -0.0939405
LeftFoot  -3.78437 0.300664 -4.22855
LeftToes  1.06246e-005 4.65854e-005 -8.18503e-006
1203
root  21.6163 39.3995 19.5049 177.397 -14.9324 172.849
RightUpLeg  -12.8411 4.54874 -13.8376
RightLeg  54.9163 -4.60825 -7.43453
RightFoot  5.0612 0.154758 -0.830492
RightToes  0.000482159 0.542163 -0.142577
Spine  12.6137 -2.35064 -8.56721
Spine1  6.77241 -5.05696 6.33385
HEad  10.1159 4.2468 0.716959
LeftShoulder1  9.08806 -13.5011 -46.6274
LeftArm  -8.31398 20.8496 -23.5997
LeftForeArm  34.7149 -10.2516 -5.27972
LeftHand  -0.25398 0.0180481 5.50724
RightShoulder  4.55269 7.87936 34.0457
RightArm  6.51971 -28.7115 39.0397
RightForeArm  -13.5875 25.4002 6.11622
RightHand  -1.35196 2.10805 -20.9603
LeftUpLeg  -5.65565 22.4924 1.3066
LeftLeg  18.5477 2.62644 0.168516
LeftFoot  -5.02183 0.232045 -3.65433
LeftToes  1.06246e-005 4.65854e-005 -8.18503e-006
1204
root  20.5025 39.6154 18.9067 176.899 -12.5267 173.365
RightUpLeg  -15.9269 0.0200999 -11.3709
RightLeg  54.1941 -2.25073 -3.78923
RightFoot  3.23029 -0.295218 2.51266
RightToes  0.000482159 0.542163 -0.142577
Spine  13.2576 -2.69361 -8.6829
Spine1  6.67583 -5.65462 7.00703
HEad  10.2329 4.26635 0.381809
LeftShoulder1  8.96376 -13.3117 -46.5031
LeftArm  -9.02963 17.8887 -22.512
LeftForeArm  32.6573 -11.2109 -5.05097
LeftHand  -0.25398 0.0180481 5.50724
RightShoulder  4.57191 7.89967 34.1421
RightArm  8.01502 -29.9039 39.1398
RightForeArm  -10.8036 26.6342 6.27402
RightHand  -1.02157 0.825126 -19.13
LeftUpLeg  -2.73617 21.5733 1.5814
LeftLeg  17.5183 6.13092 -0.0163453
LeftFoot  -6.7404 0.169577 -3.21666
LeftToes  1.06246e-005 4.65854e-005 -8.18503e-006
1205
root  19.4569 39.7813 18.2459 176.739 -9.73064 173.654
RightUpLeg  -18.3429 -4.36679 -7.92819
RightLeg  50.4762 -2.1957 -3.15952
RightFoot  1.44634 -0.570558 5.13223
RightToes  0.000482159 0.542163 -0.142577
Spine  13.3193 -2.87013 -9.13934
Spine1  6.67729 -6.07191 7.69084
HEad  10.1048 3.98282 0.588908
LeftShoulder1  8.76721 -13.1863 -45.805
LeftArm  -10.405 15.3269 -21.8521
LeftForeArm  29.9929 -12.2959 -4.64557
LeftHand  -0.25398 0.0180481 5.50724
RightShoulder  4.57361 7.92206 34.0792
RightArm  9.43301 -31.0529 39.3947
RightForeArm  -9.0154 27.513 6.39683
RightHand  -0.927486 0.268629 -18.9989
LeftUpLeg  0.195118 18.6871 1.50933
LeftLeg  15.8152 12.0787 -0.786153
LeftFoot  -8.15719 0.13146 -2.97852
LeftToes  1.06246e-005 4.65854e-005 -8.18503e-006
1206
root  18.4342 39.9016 17.5369 176.921 -6.58646 173.62
RightUpLeg  -20.0192 -8.58649 -3.85157
RightLeg  44.2131 -4.47698 -4.92485
RightFoot  -0.683211 -0.36283 3.77084
RightToes  0.000482159 0.542163 -0.142577
Spine  12.8885 -3.04561 -9.75517
Spine1  6.61522 -6.40844 8.3425
HEad  9.9007 3.39072 0.844649
LeftShoulder1  8.61454 -13.1792 -44.9979
LeftArm  -12.1088 13.565 -20.9704
LeftForeArm  27.1178 -13.9926 -4.0962
LeftHand  -0.25398 0.0180481 5.50724
RightShoulder  4.52186 7.88994 33.7406
RightArm  10.6941 -32.1327 39.8274
RightForeArm  -7.77449 28.0711 6.47013
RightHand  -0.852952 -0.202881 -18.9956
LeftUpLeg  2.86031 13.2427 0.273418
LeftLeg  13.2325 20.6604 -1.79976
LeftFoot  -8.70175 0.118475 -2.8739
LeftToes  1.06246e-005 4.65854e-005 -8.18503e-006
1207
root  17.4401 39.9157 16.7689 176.938 -3.57904 173.38
RightUpLeg  -20.1693 -13.8423 0.339721
RightLeg  35.6415 -6.13495 -5.00885
RightFoot  -3.33464 -0.221435 2.95093
RightToes  0.000482159 0.542163 -0.142577
Spine  12.5292 -3.402 -10.5001
Spine1  6.55071 -6.94696 8.92488
HEad  9.64583 2.34403 0.778035
LeftShoulder1  8.55388 -13.2039 -44.5979
LeftArm  -13.7562 12.3317 -19.2321
LeftForeArm  24.375 -16.1737 -3.64016
LeftHand  -0.25398 0.0180481 5.50724
RightShoulder  4.42822 7.77836 33.3058
RightArm  11.4976 -32.9999 40.1701
RightForeArm  -6.34783 28.4237 6.48396
RightHand  -0.74387 -0.624999 -18.0086
LeftUpLeg  5.21588 8.84331 -1.75628
LeftLeg  11.144 28.0373 -2.55529
LeftFoot  -9.67522 0.0993009 -2.84694
LeftToes  1.06246e-005 4.65854e-005 -8.18503e-006
